<?xml version="1.0" encoding="UTF-8" standalone="no"?>
<!DOCTYPE svg PUBLIC "-//W3C//DTD SVG 1.1//EN"
 "http://www.w3.org/Graphics/SVG/1.1/DTD/svg11.dtd">
<!-- Generated by graphviz version 2.44.1 (20200629.0846)
 -->
<!-- Title: dependencies Pages: 1 -->
<svg width="504pt" height="349pt"
 viewBox="0.00 0.00 504.00 349.00" xmlns="http://www.w3.org/2000/svg" xmlns:xlink="http://www.w3.org/1999/xlink">
<g id="graph0" class="graph" transform="scale(1 1) rotate(0) translate(4 345)">
<title>dependencies</title>
<polygon fill="white" stroke="transparent" points="-4,4 -4,-345 500,-345 500,4 -4,4"/>
<text text-anchor="start" x="227.01" y="-42.4" font-family="sans-serif" font-weight="bold" font-size="14.00">Legend</text>
<polygon fill="#ffffb3" stroke="transparent" points="14,-10 14,-30 34,-30 34,-10 14,-10"/>
<text text-anchor="start" x="37.63" y="-15.4" font-family="sans-serif" font-size="14.00"> &#160;Declarations</text>
<polygon fill="#8dd3c7" stroke="transparent" points="127,-10 127,-30 147,-30 147,-10 127,-10"/>
<text text-anchor="start" x="150.73" y="-15.4" font-family="sans-serif" font-size="14.00"> &#160;Module</text>
<polygon fill="#80b1d3" stroke="transparent" points="213,-10 213,-30 233,-30 233,-10 213,-10"/>
<text text-anchor="start" x="236.78" y="-15.4" font-family="sans-serif" font-size="14.00"> &#160;Bootstrap</text>
<polygon fill="#fdb462" stroke="transparent" points="310,-10 310,-30 330,-30 330,-10 310,-10"/>
<text text-anchor="start" x="333.67" y="-15.4" font-family="sans-serif" font-size="14.00"> &#160;Providers</text>
<polygon fill="#fb8072" stroke="transparent" points="406,-10 406,-30 426,-30 426,-10 406,-10"/>
<text text-anchor="start" x="429.73" y="-15.4" font-family="sans-serif" font-size="14.00"> &#160;Exports</text>
<g id="clust1" class="cluster">
<title>cluster_CountriesModule</title>
<polygon fill="none" stroke="black" stroke-dasharray="1,5" points="161,-70 161,-333 335,-333 335,-70 161,-70"/>
</g>
<g id="clust2" class="cluster">
<title>cluster_CountriesModule_declarations</title>
<polygon fill="none" stroke="black" points="172,-143 172,-195 324,-195 324,-143 172,-143"/>
</g>
<g id="clust5" class="cluster">
<title>cluster_CountriesModule_exports</title>
<polygon fill="none" stroke="black" points="170,-273 170,-325 326,-325 326,-273 170,-273"/>
</g>
<g id="clust3" class="cluster">
<title>cluster_CountriesModule_CountriesComponent_providers</title>
<polygon fill="none" stroke="black" points="169,-78 169,-130 327,-130 327,-78 169,-78"/>
</g>
<!-- CountriesComponent -->
<g id="node1" class="node">
<title>CountriesComponent</title>
<polygon fill="#ffffb3" stroke="black" points="315.77,-187 180.23,-187 180.23,-151 315.77,-151 315.77,-187"/>
<text text-anchor="middle" x="248" y="-164.8" font-family="Times,serif" font-size="14.00">CountriesComponent</text>
</g>
<!-- CountriesModule -->
<g id="node2" class="node">
<title>CountriesModule</title>
<polygon fill="#8dd3c7" stroke="black" points="304.99,-252 301.99,-256 280.99,-256 277.99,-252 191.01,-252 191.01,-216 304.99,-216 304.99,-252"/>
<text text-anchor="middle" x="248" y="-229.8" font-family="Times,serif" font-size="14.00">CountriesModule</text>
</g>
<!-- CountriesComponent&#45;&gt;CountriesModule -->
<g id="edge1" class="edge">
<title>CountriesComponent&#45;&gt;CountriesModule</title>
<path fill="none" stroke="black" d="M248,-187.11C248,-187.11 248,-205.99 248,-205.99"/>
<polygon fill="black" stroke="black" points="244.5,-205.99 248,-215.99 251.5,-205.99 244.5,-205.99"/>
</g>
<!-- CountriesComponent  -->
<g id="node4" class="node">
<title>CountriesComponent </title>
<polygon fill="#fb8072" stroke="black" points="317.77,-317 178.23,-317 178.23,-281 317.77,-281 317.77,-317"/>
<text text-anchor="middle" x="248" y="-294.8" font-family="Times,serif" font-size="14.00">CountriesComponent </text>
</g>
<!-- CountriesModule&#45;&gt;CountriesComponent  -->
<g id="edge3" class="edge">
<title>CountriesModule&#45;&gt;CountriesComponent </title>
<path fill="none" stroke="black" stroke-dasharray="5,2" d="M248,-252.11C248,-252.11 248,-270.99 248,-270.99"/>
<polygon fill="black" stroke="black" points="244.5,-270.99 248,-280.99 251.5,-270.99 244.5,-270.99"/>
</g>
<!-- GeneralService -->
<g id="node3" class="node">
<title>GeneralService</title>
<ellipse fill="#fdb462" stroke="black" cx="248" cy="-104" rx="70.6" ry="18"/>
<text text-anchor="middle" x="248" y="-99.8" font-family="Times,serif" font-size="14.00">GeneralService</text>
</g>
<!-- GeneralService&#45;&gt;CountriesComponent -->
<g id="edge2" class="edge">
<title>GeneralService&#45;&gt;CountriesComponent</title>
<path fill="none" stroke="black" d="M248,-122.11C248,-122.11 248,-140.99 248,-140.99"/>
<polygon fill="black" stroke="black" points="244.5,-140.99 248,-150.99 251.5,-140.99 244.5,-140.99"/>
</g>
</g>
</svg>
