<?xml version="1.0" encoding="UTF-8" standalone="no"?>
<!DOCTYPE svg PUBLIC "-//W3C//DTD SVG 1.1//EN"
 "http://www.w3.org/Graphics/SVG/1.1/DTD/svg11.dtd">
<!-- Generated by graphviz version 2.44.1 (20200629.0846)
 -->
<!-- Title: dependencies Pages: 1 -->
<svg width="504pt" height="284pt"
 viewBox="0.00 0.00 504.00 284.00" xmlns="http://www.w3.org/2000/svg" xmlns:xlink="http://www.w3.org/1999/xlink">
<g id="graph0" class="graph" transform="scale(1 1) rotate(0) translate(4 280)">
<title>dependencies</title>
<polygon fill="white" stroke="transparent" points="-4,4 -4,-280 500,-280 500,4 -4,4"/>
<text text-anchor="start" x="227.01" y="-42.4" font-family="sans-serif" font-weight="bold" font-size="14.00">Legend</text>
<polygon fill="#ffffb3" stroke="transparent" points="14,-10 14,-30 34,-30 34,-10 14,-10"/>
<text text-anchor="start" x="37.63" y="-15.4" font-family="sans-serif" font-size="14.00"> &#160;Declarations</text>
<polygon fill="#8dd3c7" stroke="transparent" points="127,-10 127,-30 147,-30 147,-10 127,-10"/>
<text text-anchor="start" x="150.73" y="-15.4" font-family="sans-serif" font-size="14.00"> &#160;Module</text>
<polygon fill="#80b1d3" stroke="transparent" points="213,-10 213,-30 233,-30 233,-10 213,-10"/>
<text text-anchor="start" x="236.78" y="-15.4" font-family="sans-serif" font-size="14.00"> &#160;Bootstrap</text>
<polygon fill="#fdb462" stroke="transparent" points="310,-10 310,-30 330,-30 330,-10 310,-10"/>
<text text-anchor="start" x="333.67" y="-15.4" font-family="sans-serif" font-size="14.00"> &#160;Providers</text>
<polygon fill="#fb8072" stroke="transparent" points="406,-10 406,-30 426,-30 426,-10 406,-10"/>
<text text-anchor="start" x="429.73" y="-15.4" font-family="sans-serif" font-size="14.00"> &#160;Exports</text>
<g id="clust1" class="cluster">
<title>cluster_CountryDetailModule</title>
<polygon fill="none" stroke="black" stroke-dasharray="1,5" points="90,-70 90,-268 406,-268 406,-70 90,-70"/>
</g>
<g id="clust5" class="cluster">
<title>cluster_CountryDetailModule_exports</title>
<polygon fill="none" stroke="black" points="98,-208 98,-260 398,-260 398,-208 98,-208"/>
</g>
<g id="clust2" class="cluster">
<title>cluster_CountryDetailModule_declarations</title>
<polygon fill="none" stroke="black" points="158,-78 158,-130 336,-130 336,-78 158,-78"/>
</g>
<!-- CountryDetailComponent -->
<g id="node1" class="node">
<title>CountryDetailComponent</title>
<polygon fill="#ffffb3" stroke="black" points="327.93,-122 166.07,-122 166.07,-86 327.93,-86 327.93,-122"/>
<text text-anchor="middle" x="247" y="-99.8" font-family="Times,serif" font-size="14.00">CountryDetailComponent</text>
</g>
<!-- CountryDetailModule -->
<g id="node2" class="node">
<title>CountryDetailModule</title>
<polygon fill="#8dd3c7" stroke="black" points="316.65,-187 313.65,-191 292.65,-191 289.65,-187 177.35,-187 177.35,-151 316.65,-151 316.65,-187"/>
<text text-anchor="middle" x="247" y="-164.8" font-family="Times,serif" font-size="14.00">CountryDetailModule</text>
</g>
<!-- CountryDetailComponent&#45;&gt;CountryDetailModule -->
<g id="edge1" class="edge">
<title>CountryDetailComponent&#45;&gt;CountryDetailModule</title>
<path fill="none" stroke="black" d="M247,-122.11C247,-122.11 247,-140.99 247,-140.99"/>
<polygon fill="black" stroke="black" points="243.5,-140.99 247,-150.99 250.5,-140.99 243.5,-140.99"/>
</g>
<!-- CountryDetailComponent  -->
<g id="node3" class="node">
<title>CountryDetailComponent </title>
<polygon fill="#fb8072" stroke="black" points="390.43,-252 225.57,-252 225.57,-216 390.43,-216 390.43,-252"/>
<text text-anchor="middle" x="308" y="-229.8" font-family="Times,serif" font-size="14.00">CountryDetailComponent </text>
</g>
<!-- CountryDetailModule&#45;&gt;CountryDetailComponent  -->
<g id="edge2" class="edge">
<title>CountryDetailModule&#45;&gt;CountryDetailComponent </title>
<path fill="none" stroke="black" stroke-dasharray="5,2" d="M271.18,-187.11C271.18,-187.11 271.18,-205.99 271.18,-205.99"/>
<polygon fill="black" stroke="black" points="267.68,-205.99 271.18,-215.99 274.68,-205.99 267.68,-205.99"/>
</g>
<!-- SharedModule  -->
<g id="node4" class="node">
<title>SharedModule </title>
<polygon fill="#fb8072" stroke="black" points="207.92,-252 106.08,-252 106.08,-216 207.92,-216 207.92,-252"/>
<text text-anchor="middle" x="157" y="-229.8" font-family="Times,serif" font-size="14.00">SharedModule </text>
</g>
<!-- CountryDetailModule&#45;&gt;SharedModule  -->
<g id="edge3" class="edge">
<title>CountryDetailModule&#45;&gt;SharedModule </title>
<path fill="none" stroke="black" stroke-dasharray="5,2" d="M192.57,-187.11C192.57,-187.11 192.57,-205.99 192.57,-205.99"/>
<polygon fill="black" stroke="black" points="189.07,-205.99 192.57,-215.99 196.07,-205.99 189.07,-205.99"/>
</g>
</g>
</svg>
