<?xml version="1.0" encoding="UTF-8" standalone="no"?>
<!DOCTYPE svg PUBLIC "-//W3C//DTD SVG 1.1//EN"
 "http://www.w3.org/Graphics/SVG/1.1/DTD/svg11.dtd">
<!-- Generated by graphviz version 2.44.1 (20200629.0846)
 -->
<!-- Title: dependencies Pages: 1 -->
<svg width="722pt" height="284pt"
 viewBox="0.00 0.00 722.00 284.00" xmlns="http://www.w3.org/2000/svg" xmlns:xlink="http://www.w3.org/1999/xlink">
<g id="graph0" class="graph" transform="scale(1 1) rotate(0) translate(4 280)">
<title>dependencies</title>
<polygon fill="white" stroke="transparent" points="-4,4 -4,-280 718,-280 718,4 -4,4"/>
<text text-anchor="start" x="336.01" y="-42.4" font-family="sans-serif" font-weight="bold" font-size="14.00">Legend</text>
<polygon fill="#ffffb3" stroke="transparent" points="123,-10 123,-30 143,-30 143,-10 123,-10"/>
<text text-anchor="start" x="146.63" y="-15.4" font-family="sans-serif" font-size="14.00"> &#160;Declarations</text>
<polygon fill="#8dd3c7" stroke="transparent" points="236,-10 236,-30 256,-30 256,-10 236,-10"/>
<text text-anchor="start" x="259.73" y="-15.4" font-family="sans-serif" font-size="14.00"> &#160;Module</text>
<polygon fill="#80b1d3" stroke="transparent" points="322,-10 322,-30 342,-30 342,-10 322,-10"/>
<text text-anchor="start" x="345.78" y="-15.4" font-family="sans-serif" font-size="14.00"> &#160;Bootstrap</text>
<polygon fill="#fdb462" stroke="transparent" points="419,-10 419,-30 439,-30 439,-10 419,-10"/>
<text text-anchor="start" x="442.67" y="-15.4" font-family="sans-serif" font-size="14.00"> &#160;Providers</text>
<polygon fill="#fb8072" stroke="transparent" points="515,-10 515,-30 535,-30 535,-10 515,-10"/>
<text text-anchor="start" x="538.73" y="-15.4" font-family="sans-serif" font-size="14.00"> &#160;Exports</text>
<g id="clust1" class="cluster">
<title>cluster_AppModule</title>
<polygon fill="none" stroke="black" stroke-dasharray="1,5" points="8,-70 8,-268 706,-268 706,-70 8,-70"/>
</g>
<g id="clust2" class="cluster">
<title>cluster_AppModule_declarations</title>
<polygon fill="none" stroke="black" points="576,-78 576,-130 698,-130 698,-78 576,-78"/>
</g>
<g id="clust4" class="cluster">
<title>cluster_AppModule_imports</title>
<polygon fill="none" stroke="black" points="16,-78 16,-130 568,-130 568,-78 16,-78"/>
</g>
<g id="clust6" class="cluster">
<title>cluster_AppModule_bootstrap</title>
<polygon fill="none" stroke="black" points="295,-208 295,-260 419,-260 419,-208 295,-208"/>
</g>
<!-- AppComponent -->
<g id="node1" class="node">
<title>AppComponent</title>
<polygon fill="#ffffb3" stroke="black" points="689.94,-122 584.06,-122 584.06,-86 689.94,-86 689.94,-122"/>
<text text-anchor="middle" x="637" y="-99.8" font-family="Times,serif" font-size="14.00">AppComponent</text>
</g>
<!-- AppModule -->
<g id="node2" class="node">
<title>AppModule</title>
<polygon fill="#8dd3c7" stroke="black" points="398.66,-187 395.66,-191 374.66,-191 371.66,-187 315.34,-187 315.34,-151 398.66,-151 398.66,-187"/>
<text text-anchor="middle" x="357" y="-164.8" font-family="Times,serif" font-size="14.00">AppModule</text>
</g>
<!-- AppComponent&#45;&gt;AppModule -->
<g id="edge1" class="edge">
<title>AppComponent&#45;&gt;AppModule</title>
<path fill="none" stroke="black" d="M637,-122.28C637,-143.32 637,-175 637,-175 637,-175 408.92,-175 408.92,-175"/>
<polygon fill="black" stroke="black" points="408.92,-171.5 398.92,-175 408.92,-178.5 408.92,-171.5"/>
</g>
<!-- AppComponent  -->
<g id="node7" class="node">
<title>AppComponent </title>
<polygon fill="#80b1d3" stroke="black" points="411.44,-252 302.56,-252 302.56,-216 411.44,-216 411.44,-252"/>
<text text-anchor="middle" x="357" y="-229.8" font-family="Times,serif" font-size="14.00">AppComponent </text>
</g>
<!-- AppModule&#45;&gt;AppComponent  -->
<g id="edge6" class="edge">
<title>AppModule&#45;&gt;AppComponent </title>
<path fill="none" stroke="black" stroke-dasharray="1,5" d="M357,-187.11C357,-187.11 357,-205.99 357,-205.99"/>
<polygon fill="black" stroke="black" points="353.5,-205.99 357,-215.99 360.5,-205.99 353.5,-205.99"/>
</g>
<!-- AppRoutingModule -->
<g id="node3" class="node">
<title>AppRoutingModule</title>
<polygon fill="#8dd3c7" stroke="black" points="560.27,-122 557.27,-126 536.27,-126 533.27,-122 431.73,-122 431.73,-86 560.27,-86 560.27,-122"/>
<text text-anchor="middle" x="496" y="-99.8" font-family="Times,serif" font-size="14.00">AppRoutingModule</text>
</g>
<!-- AppRoutingModule&#45;&gt;AppModule -->
<g id="edge2" class="edge">
<title>AppRoutingModule&#45;&gt;AppModule</title>
<path fill="none" stroke="black" d="M496,-122.02C496,-139.37 496,-163 496,-163 496,-163 408.7,-163 408.7,-163"/>
<polygon fill="black" stroke="black" points="408.7,-159.5 398.7,-163 408.7,-166.5 408.7,-159.5"/>
</g>
<!-- CountriesModule -->
<g id="node4" class="node">
<title>CountriesModule</title>
<polygon fill="#8dd3c7" stroke="black" points="413.99,-122 410.99,-126 389.99,-126 386.99,-122 300.01,-122 300.01,-86 413.99,-86 413.99,-122"/>
<text text-anchor="middle" x="357" y="-99.8" font-family="Times,serif" font-size="14.00">CountriesModule</text>
</g>
<!-- CountriesModule&#45;&gt;AppModule -->
<g id="edge3" class="edge">
<title>CountriesModule&#45;&gt;AppModule</title>
<path fill="none" stroke="black" d="M357,-122.11C357,-122.11 357,-140.99 357,-140.99"/>
<polygon fill="black" stroke="black" points="353.5,-140.99 357,-150.99 360.5,-140.99 353.5,-140.99"/>
</g>
<!-- CountryDetailModule -->
<g id="node5" class="node">
<title>CountryDetailModule</title>
<polygon fill="#8dd3c7" stroke="black" points="281.65,-122 278.65,-126 257.65,-126 254.65,-122 142.35,-122 142.35,-86 281.65,-86 281.65,-122"/>
<text text-anchor="middle" x="212" y="-99.8" font-family="Times,serif" font-size="14.00">CountryDetailModule</text>
</g>
<!-- CountryDetailModule&#45;&gt;AppModule -->
<g id="edge4" class="edge">
<title>CountryDetailModule&#45;&gt;AppModule</title>
<path fill="none" stroke="black" d="M212,-122.02C212,-139.37 212,-163 212,-163 212,-163 305.06,-163 305.06,-163"/>
<polygon fill="black" stroke="black" points="305.06,-166.5 315.06,-163 305.06,-159.5 305.06,-166.5"/>
</g>
<!-- HeaderModule -->
<g id="node6" class="node">
<title>HeaderModule</title>
<polygon fill="#8dd3c7" stroke="black" points="123.96,-122 120.96,-126 99.96,-126 96.96,-122 24.04,-122 24.04,-86 123.96,-86 123.96,-122"/>
<text text-anchor="middle" x="74" y="-99.8" font-family="Times,serif" font-size="14.00">HeaderModule</text>
</g>
<!-- HeaderModule&#45;&gt;AppModule -->
<g id="edge5" class="edge">
<title>HeaderModule&#45;&gt;AppModule</title>
<path fill="none" stroke="black" d="M74,-122.28C74,-143.32 74,-175 74,-175 74,-175 305.24,-175 305.24,-175"/>
<polygon fill="black" stroke="black" points="305.24,-178.5 315.24,-175 305.24,-171.5 305.24,-178.5"/>
</g>
</g>
</svg>
