<?xml version="1.0" encoding="UTF-8" standalone="no"?>
<!DOCTYPE svg PUBLIC "-//W3C//DTD SVG 1.1//EN"
 "http://www.w3.org/Graphics/SVG/1.1/DTD/svg11.dtd">
<!-- Generated by graphviz version 2.44.1 (20200629.0846)
 -->
<!-- Title: dependencies Pages: 1 -->
<svg width="923pt" height="366pt"
 viewBox="0.00 0.00 923.00 366.00" xmlns="http://www.w3.org/2000/svg" xmlns:xlink="http://www.w3.org/1999/xlink">
<g id="graph0" class="graph" transform="scale(1 1) rotate(0) translate(4 362)">
<title>dependencies</title>
<polygon fill="white" stroke="transparent" points="-4,4 -4,-362 919,-362 919,4 -4,4"/>
<text text-anchor="start" x="436.51" y="-42.4" font-family="sans-serif" font-weight="bold" font-size="14.00">Legend</text>
<polygon fill="#ffffb3" stroke="transparent" points="223.5,-10 223.5,-30 243.5,-30 243.5,-10 223.5,-10"/>
<text text-anchor="start" x="247.13" y="-15.4" font-family="sans-serif" font-size="14.00"> &#160;Declarations</text>
<polygon fill="#8dd3c7" stroke="transparent" points="336.5,-10 336.5,-30 356.5,-30 356.5,-10 336.5,-10"/>
<text text-anchor="start" x="360.23" y="-15.4" font-family="sans-serif" font-size="14.00"> &#160;Module</text>
<polygon fill="#80b1d3" stroke="transparent" points="422.5,-10 422.5,-30 442.5,-30 442.5,-10 422.5,-10"/>
<text text-anchor="start" x="446.28" y="-15.4" font-family="sans-serif" font-size="14.00"> &#160;Bootstrap</text>
<polygon fill="#fdb462" stroke="transparent" points="519.5,-10 519.5,-30 539.5,-30 539.5,-10 519.5,-10"/>
<text text-anchor="start" x="543.17" y="-15.4" font-family="sans-serif" font-size="14.00"> &#160;Providers</text>
<polygon fill="#fb8072" stroke="transparent" points="615.5,-10 615.5,-30 635.5,-30 635.5,-10 615.5,-10"/>
<text text-anchor="start" x="639.23" y="-15.4" font-family="sans-serif" font-size="14.00"> &#160;Exports</text>
<g id="clust1" class="cluster">
<title>cluster_AppModule</title>
<polygon fill="none" stroke="black" stroke-dasharray="1,5" points="27,-146 27,-350 567,-350 567,-146 27,-146"/>
</g>
<g id="clust2" class="cluster">
<title>cluster_AppModule_declarations</title>
<polygon fill="none" stroke="black" points="35,-154 35,-206 157,-206 157,-154 35,-154"/>
</g>
<g id="clust4" class="cluster">
<title>cluster_AppModule_imports</title>
<polygon fill="none" stroke="black" points="165,-154 165,-206 559,-206 559,-154 165,-154"/>
</g>
<g id="clust6" class="cluster">
<title>cluster_AppModule_bootstrap</title>
<polygon fill="none" stroke="black" points="227,-290 227,-342 351,-342 351,-290 227,-290"/>
</g>
<g id="clust14" class="cluster">
<title>cluster_CountriesModule</title>
<polygon fill="none" stroke="black" stroke-dasharray="1,5" points="575,-214 575,-282 907,-282 907,-214 575,-214"/>
</g>
<g id="clust15" class="cluster">
<title>cluster_CountriesModule_declarations</title>
<polygon fill="none" stroke="black" points="747,-222 747,-274 899,-274 899,-222 747,-222"/>
</g>
<g id="clust18" class="cluster">
<title>cluster_CountriesModule_exports</title>
<polygon fill="none" stroke="black" points="583,-222 583,-274 739,-274 739,-222 583,-222"/>
</g>
<g id="clust21" class="cluster">
<title>cluster_HeaderModule</title>
<polygon fill="none" stroke="black" stroke-dasharray="1,5" points="8,-70 8,-138 434,-138 434,-70 8,-70"/>
</g>
<g id="clust22" class="cluster">
<title>cluster_HeaderModule_declarations</title>
<polygon fill="none" stroke="black" points="288,-78 288,-130 426,-130 426,-78 288,-78"/>
</g>
<g id="clust24" class="cluster">
<title>cluster_HeaderModule_imports</title>
<polygon fill="none" stroke="black" points="166,-78 166,-130 280,-130 280,-78 166,-78"/>
</g>
<g id="clust25" class="cluster">
<title>cluster_HeaderModule_exports</title>
<polygon fill="none" stroke="black" points="16,-78 16,-130 158,-130 158,-78 16,-78"/>
</g>
<!-- AppComponent -->
<g id="node1" class="node">
<title>AppComponent</title>
<polygon fill="#ffffb3" stroke="black" points="148.94,-198 43.06,-198 43.06,-162 148.94,-162 148.94,-198"/>
<text text-anchor="middle" x="96" y="-175.8" font-family="Times,serif" font-size="14.00">AppComponent</text>
</g>
<!-- AppModule -->
<g id="node2" class="node">
<title>AppModule</title>
<polygon fill="#8dd3c7" stroke="black" points="330.66,-266 327.66,-270 306.66,-270 303.66,-266 247.34,-266 247.34,-230 330.66,-230 330.66,-266"/>
<text text-anchor="middle" x="289" y="-243.8" font-family="Times,serif" font-size="14.00">AppModule</text>
</g>
<!-- AppComponent&#45;&gt;AppModule -->
<g id="edge1" class="edge">
<title>AppComponent&#45;&gt;AppModule</title>
<path fill="none" stroke="black" d="M96,-198.22C96,-218.37 96,-248 96,-248 96,-248 237.12,-248 237.12,-248"/>
<polygon fill="black" stroke="black" points="237.12,-251.5 247.12,-248 237.12,-244.5 237.12,-251.5"/>
</g>
<!-- AppComponent  -->
<g id="node6" class="node">
<title>AppComponent </title>
<polygon fill="#80b1d3" stroke="black" points="343.44,-334 234.56,-334 234.56,-298 343.44,-298 343.44,-334"/>
<text text-anchor="middle" x="289" y="-311.8" font-family="Times,serif" font-size="14.00">AppComponent </text>
</g>
<!-- AppModule&#45;&gt;AppComponent  -->
<g id="edge5" class="edge">
<title>AppModule&#45;&gt;AppComponent </title>
<path fill="none" stroke="black" stroke-dasharray="1,5" d="M289,-266.22C289,-266.22 289,-287.73 289,-287.73"/>
<polygon fill="black" stroke="black" points="285.5,-287.73 289,-297.73 292.5,-287.73 285.5,-287.73"/>
</g>
<!-- AppRoutingModule -->
<g id="node3" class="node">
<title>AppRoutingModule</title>
<polygon fill="#8dd3c7" stroke="black" points="419.27,-198 416.27,-202 395.27,-202 392.27,-198 290.73,-198 290.73,-162 419.27,-162 419.27,-198"/>
<text text-anchor="middle" x="355" y="-175.8" font-family="Times,serif" font-size="14.00">AppRoutingModule</text>
</g>
<!-- AppRoutingModule&#45;&gt;AppModule -->
<g id="edge2" class="edge">
<title>AppRoutingModule&#45;&gt;AppModule</title>
<path fill="none" stroke="black" d="M310.72,-198.22C310.72,-198.22 310.72,-219.73 310.72,-219.73"/>
<polygon fill="black" stroke="black" points="307.22,-219.73 310.72,-229.73 314.22,-219.73 307.22,-219.73"/>
</g>
<!-- CountriesModule -->
<g id="node4" class="node">
<title>CountriesModule</title>
<polygon fill="#8dd3c7" stroke="black" points="550.99,-198 547.99,-202 526.99,-202 523.99,-198 437.01,-198 437.01,-162 550.99,-162 550.99,-198"/>
<text text-anchor="middle" x="494" y="-175.8" font-family="Times,serif" font-size="14.00">CountriesModule</text>
</g>
<!-- CountriesModule&#45;&gt;AppModule -->
<g id="edge3" class="edge">
<title>CountriesModule&#45;&gt;AppModule</title>
<path fill="none" stroke="black" d="M475,-198.27C475,-216.56 475,-242 475,-242 475,-242 340.74,-242 340.74,-242"/>
<polygon fill="black" stroke="black" points="340.74,-238.5 330.74,-242 340.74,-245.5 340.74,-238.5"/>
</g>
<!-- CountriesComponent  -->
<g id="node8" class="node">
<title>CountriesComponent </title>
<polygon fill="#fb8072" stroke="black" points="730.77,-266 591.23,-266 591.23,-230 730.77,-230 730.77,-266"/>
<text text-anchor="middle" x="661" y="-243.8" font-family="Times,serif" font-size="14.00">CountriesComponent </text>
</g>
<!-- CountriesModule&#45;&gt;CountriesComponent  -->
<g id="edge7" class="edge">
<title>CountriesModule&#45;&gt;CountriesComponent </title>
<path fill="none" stroke="black" stroke-dasharray="5,2" d="M513,-198.29C513,-220.21 513,-254 513,-254 513,-254 581.33,-254 581.33,-254"/>
<polygon fill="black" stroke="black" points="581.33,-257.5 591.33,-254 581.33,-250.5 581.33,-257.5"/>
</g>
<!-- HeaderModule -->
<g id="node5" class="node">
<title>HeaderModule</title>
<polygon fill="#8dd3c7" stroke="black" points="272.96,-198 269.96,-202 248.96,-202 245.96,-198 173.04,-198 173.04,-162 272.96,-162 272.96,-198"/>
<text text-anchor="middle" x="223" y="-175.8" font-family="Times,serif" font-size="14.00">HeaderModule</text>
</g>
<!-- HeaderModule&#45;&gt;AppModule -->
<g id="edge4" class="edge">
<title>HeaderModule&#45;&gt;AppModule</title>
<path fill="none" stroke="black" d="M260.08,-198.22C260.08,-198.22 260.08,-219.73 260.08,-219.73"/>
<polygon fill="black" stroke="black" points="256.58,-219.73 260.08,-229.73 263.58,-219.73 256.58,-219.73"/>
</g>
<!-- HeaderComponent  -->
<g id="node11" class="node">
<title>HeaderComponent </title>
<polygon fill="#fb8072" stroke="black" points="149.74,-122 24.26,-122 24.26,-86 149.74,-86 149.74,-122"/>
<text text-anchor="middle" x="87" y="-99.8" font-family="Times,serif" font-size="14.00">HeaderComponent </text>
</g>
<!-- HeaderModule&#45;&gt;HeaderComponent  -->
<g id="edge10" class="edge">
<title>HeaderModule&#45;&gt;HeaderComponent </title>
<path fill="none" stroke="black" stroke-dasharray="5,2" d="M172.92,-180C166.06,-180 161.32,-180 161.32,-180 161.32,-180 161.32,-104 161.32,-104 161.32,-104 159.71,-104 159.71,-104"/>
<polygon fill="black" stroke="black" points="159.71,-100.5 149.71,-104 159.71,-107.5 159.71,-100.5"/>
</g>
<!-- CountriesComponent -->
<g id="node7" class="node">
<title>CountriesComponent</title>
<polygon fill="#ffffb3" stroke="black" points="890.77,-266 755.23,-266 755.23,-230 890.77,-230 890.77,-266"/>
<text text-anchor="middle" x="823" y="-243.8" font-family="Times,serif" font-size="14.00">CountriesComponent</text>
</g>
<!-- CountriesComponent&#45;&gt;CountriesModule -->
<g id="edge6" class="edge">
<title>CountriesComponent&#45;&gt;CountriesModule</title>
<path fill="none" stroke="black" d="M823,-229.78C823,-209.63 823,-180 823,-180 823,-180 561.31,-180 561.31,-180"/>
<polygon fill="black" stroke="black" points="561.31,-176.5 551.31,-180 561.31,-183.5 561.31,-176.5"/>
</g>
<!-- HeaderComponent -->
<g id="node9" class="node">
<title>HeaderComponent</title>
<polygon fill="#ffffb3" stroke="black" points="417.74,-122 296.26,-122 296.26,-86 417.74,-86 417.74,-122"/>
<text text-anchor="middle" x="357" y="-99.8" font-family="Times,serif" font-size="14.00">HeaderComponent</text>
</g>
<!-- HeaderComponent&#45;&gt;HeaderModule -->
<g id="edge8" class="edge">
<title>HeaderComponent&#45;&gt;HeaderModule</title>
<path fill="none" stroke="black" d="M295.94,-104C287.58,-104 281.8,-104 281.8,-104 281.8,-104 281.8,-180 281.8,-180 281.8,-180 280.93,-180 280.93,-180"/>
<polygon fill="black" stroke="black" points="283.12,-176.5 273.12,-180 283.12,-183.5 283.12,-176.5"/>
</g>
<!-- SharedModule -->
<g id="node10" class="node">
<title>SharedModule</title>
<polygon fill="#8dd3c7" stroke="black" points="272.42,-122 269.42,-126 248.42,-126 245.42,-122 173.58,-122 173.58,-86 272.42,-86 272.42,-122"/>
<text text-anchor="middle" x="223" y="-99.8" font-family="Times,serif" font-size="14.00">SharedModule</text>
</g>
<!-- SharedModule&#45;&gt;HeaderModule -->
<g id="edge9" class="edge">
<title>SharedModule&#45;&gt;HeaderModule</title>
<path fill="none" stroke="black" d="M223,-122.01C223,-122.01 223,-151.85 223,-151.85"/>
<polygon fill="black" stroke="black" points="219.5,-151.85 223,-161.85 226.5,-151.85 219.5,-151.85"/>
</g>
</g>
</svg>
