<?xml version="1.0" encoding="UTF-8" standalone="no"?>
<!DOCTYPE svg PUBLIC "-//W3C//DTD SVG 1.1//EN"
 "http://www.w3.org/Graphics/SVG/1.1/DTD/svg11.dtd">
<!-- Generated by graphviz version 2.44.1 (20200629.0846)
 -->
<!-- Title: dependencies Pages: 1 -->
<svg width="1591pt" height="366pt"
 viewBox="0.00 0.00 1591.00 366.00" xmlns="http://www.w3.org/2000/svg" xmlns:xlink="http://www.w3.org/1999/xlink">
<g id="graph0" class="graph" transform="scale(1 1) rotate(0) translate(4 362)">
<title>dependencies</title>
<polygon fill="white" stroke="transparent" points="-4,4 -4,-362 1587,-362 1587,4 -4,4"/>
<text text-anchor="start" x="770.51" y="-42.4" font-family="sans-serif" font-weight="bold" font-size="14.00">Legend</text>
<polygon fill="#ffffb3" stroke="transparent" points="557.5,-10 557.5,-30 577.5,-30 577.5,-10 557.5,-10"/>
<text text-anchor="start" x="581.13" y="-15.4" font-family="sans-serif" font-size="14.00"> &#160;Declarations</text>
<polygon fill="#8dd3c7" stroke="transparent" points="670.5,-10 670.5,-30 690.5,-30 690.5,-10 670.5,-10"/>
<text text-anchor="start" x="694.23" y="-15.4" font-family="sans-serif" font-size="14.00"> &#160;Module</text>
<polygon fill="#80b1d3" stroke="transparent" points="756.5,-10 756.5,-30 776.5,-30 776.5,-10 756.5,-10"/>
<text text-anchor="start" x="780.28" y="-15.4" font-family="sans-serif" font-size="14.00"> &#160;Bootstrap</text>
<polygon fill="#fdb462" stroke="transparent" points="853.5,-10 853.5,-30 873.5,-30 873.5,-10 853.5,-10"/>
<text text-anchor="start" x="877.17" y="-15.4" font-family="sans-serif" font-size="14.00"> &#160;Providers</text>
<polygon fill="#fb8072" stroke="transparent" points="949.5,-10 949.5,-30 969.5,-30 969.5,-10 949.5,-10"/>
<text text-anchor="start" x="973.23" y="-15.4" font-family="sans-serif" font-size="14.00"> &#160;Exports</text>
<g id="clust1" class="cluster">
<title>cluster_AppModule</title>
<polygon fill="none" stroke="black" stroke-dasharray="1,5" points="27,-146 27,-350 725,-350 725,-146 27,-146"/>
</g>
<g id="clust2" class="cluster">
<title>cluster_AppModule_declarations</title>
<polygon fill="none" stroke="black" points="35,-154 35,-206 157,-206 157,-154 35,-154"/>
</g>
<g id="clust4" class="cluster">
<title>cluster_AppModule_imports</title>
<polygon fill="none" stroke="black" points="165,-154 165,-206 717,-206 717,-154 165,-154"/>
</g>
<g id="clust6" class="cluster">
<title>cluster_AppModule_bootstrap</title>
<polygon fill="none" stroke="black" points="293,-290 293,-342 417,-342 417,-290 293,-290"/>
</g>
<g id="clust14" class="cluster">
<title>cluster_CountriesModule</title>
<polygon fill="none" stroke="black" stroke-dasharray="1,5" points="733,-214 733,-282 1065,-282 1065,-214 733,-214"/>
</g>
<g id="clust15" class="cluster">
<title>cluster_CountriesModule_declarations</title>
<polygon fill="none" stroke="black" points="905,-222 905,-274 1057,-274 1057,-222 905,-222"/>
</g>
<g id="clust18" class="cluster">
<title>cluster_CountriesModule_exports</title>
<polygon fill="none" stroke="black" points="741,-222 741,-274 897,-274 897,-222 741,-222"/>
</g>
<g id="clust21" class="cluster">
<title>cluster_CountryDetailModule</title>
<polygon fill="none" stroke="black" stroke-dasharray="1,5" points="1073,-214 1073,-282 1575,-282 1575,-214 1073,-214"/>
</g>
<g id="clust22" class="cluster">
<title>cluster_CountryDetailModule_declarations</title>
<polygon fill="none" stroke="black" points="1389,-222 1389,-274 1567,-274 1567,-222 1389,-222"/>
</g>
<g id="clust25" class="cluster">
<title>cluster_CountryDetailModule_exports</title>
<polygon fill="none" stroke="black" points="1081,-222 1081,-274 1381,-274 1381,-222 1081,-222"/>
</g>
<g id="clust28" class="cluster">
<title>cluster_HeaderModule</title>
<polygon fill="none" stroke="black" stroke-dasharray="1,5" points="8,-70 8,-138 434,-138 434,-70 8,-70"/>
</g>
<g id="clust29" class="cluster">
<title>cluster_HeaderModule_declarations</title>
<polygon fill="none" stroke="black" points="288,-78 288,-130 426,-130 426,-78 288,-78"/>
</g>
<g id="clust31" class="cluster">
<title>cluster_HeaderModule_imports</title>
<polygon fill="none" stroke="black" points="166,-78 166,-130 280,-130 280,-78 166,-78"/>
</g>
<g id="clust32" class="cluster">
<title>cluster_HeaderModule_exports</title>
<polygon fill="none" stroke="black" points="16,-78 16,-130 158,-130 158,-78 16,-78"/>
</g>
<!-- AppComponent -->
<g id="node1" class="node">
<title>AppComponent</title>
<polygon fill="#ffffb3" stroke="black" points="148.94,-198 43.06,-198 43.06,-162 148.94,-162 148.94,-198"/>
<text text-anchor="middle" x="96" y="-175.8" font-family="Times,serif" font-size="14.00">AppComponent</text>
</g>
<!-- AppModule -->
<g id="node2" class="node">
<title>AppModule</title>
<polygon fill="#8dd3c7" stroke="black" points="396.66,-266 393.66,-270 372.66,-270 369.66,-266 313.34,-266 313.34,-230 396.66,-230 396.66,-266"/>
<text text-anchor="middle" x="355" y="-243.8" font-family="Times,serif" font-size="14.00">AppModule</text>
</g>
<!-- AppComponent&#45;&gt;AppModule -->
<g id="edge1" class="edge">
<title>AppComponent&#45;&gt;AppModule</title>
<path fill="none" stroke="black" d="M96,-198.29C96,-220.21 96,-254 96,-254 96,-254 303.1,-254 303.1,-254"/>
<polygon fill="black" stroke="black" points="303.1,-257.5 313.1,-254 303.1,-250.5 303.1,-257.5"/>
</g>
<!-- AppComponent  -->
<g id="node7" class="node">
<title>AppComponent </title>
<polygon fill="#80b1d3" stroke="black" points="409.44,-334 300.56,-334 300.56,-298 409.44,-298 409.44,-334"/>
<text text-anchor="middle" x="355" y="-311.8" font-family="Times,serif" font-size="14.00">AppComponent </text>
</g>
<!-- AppModule&#45;&gt;AppComponent  -->
<g id="edge6" class="edge">
<title>AppModule&#45;&gt;AppComponent </title>
<path fill="none" stroke="black" stroke-dasharray="1,5" d="M355,-266.22C355,-266.22 355,-287.73 355,-287.73"/>
<polygon fill="black" stroke="black" points="351.5,-287.73 355,-297.73 358.5,-287.73 351.5,-287.73"/>
</g>
<!-- AppRoutingModule -->
<g id="node3" class="node">
<title>AppRoutingModule</title>
<polygon fill="#8dd3c7" stroke="black" points="419.27,-198 416.27,-202 395.27,-202 392.27,-198 290.73,-198 290.73,-162 419.27,-162 419.27,-198"/>
<text text-anchor="middle" x="355" y="-175.8" font-family="Times,serif" font-size="14.00">AppRoutingModule</text>
</g>
<!-- AppRoutingModule&#45;&gt;AppModule -->
<g id="edge2" class="edge">
<title>AppRoutingModule&#45;&gt;AppModule</title>
<path fill="none" stroke="black" d="M355,-198.22C355,-198.22 355,-219.73 355,-219.73"/>
<polygon fill="black" stroke="black" points="351.5,-219.73 355,-229.73 358.5,-219.73 351.5,-219.73"/>
</g>
<!-- CountriesModule -->
<g id="node4" class="node">
<title>CountriesModule</title>
<polygon fill="#8dd3c7" stroke="black" points="550.99,-198 547.99,-202 526.99,-202 523.99,-198 437.01,-198 437.01,-162 550.99,-162 550.99,-198"/>
<text text-anchor="middle" x="494" y="-175.8" font-family="Times,serif" font-size="14.00">CountriesModule</text>
</g>
<!-- CountriesModule&#45;&gt;AppModule -->
<g id="edge3" class="edge">
<title>CountriesModule&#45;&gt;AppModule</title>
<path fill="none" stroke="black" d="M494,-198.22C494,-218.37 494,-248 494,-248 494,-248 406.7,-248 406.7,-248"/>
<polygon fill="black" stroke="black" points="406.7,-244.5 396.7,-248 406.7,-251.5 406.7,-244.5"/>
</g>
<!-- CountriesComponent  -->
<g id="node9" class="node">
<title>CountriesComponent </title>
<polygon fill="#fb8072" stroke="black" points="888.77,-266 749.23,-266 749.23,-230 888.77,-230 888.77,-266"/>
<text text-anchor="middle" x="819" y="-243.8" font-family="Times,serif" font-size="14.00">CountriesComponent </text>
</g>
<!-- CountriesModule&#45;&gt;CountriesComponent  -->
<g id="edge8" class="edge">
<title>CountriesModule&#45;&gt;CountriesComponent </title>
<path fill="none" stroke="black" stroke-dasharray="5,2" d="M522.5,-198.02C522.5,-215.37 522.5,-239 522.5,-239 522.5,-239 739.11,-239 739.11,-239"/>
<polygon fill="black" stroke="black" points="739.11,-242.5 749.11,-239 739.11,-235.5 739.11,-242.5"/>
</g>
<!-- CountryDetailModule -->
<g id="node5" class="node">
<title>CountryDetailModule</title>
<polygon fill="#8dd3c7" stroke="black" points="708.65,-198 705.65,-202 684.65,-202 681.65,-198 569.35,-198 569.35,-162 708.65,-162 708.65,-198"/>
<text text-anchor="middle" x="639" y="-175.8" font-family="Times,serif" font-size="14.00">CountryDetailModule</text>
</g>
<!-- CountryDetailModule&#45;&gt;AppModule -->
<g id="edge4" class="edge">
<title>CountryDetailModule&#45;&gt;AppModule</title>
<path fill="none" stroke="black" d="M639,-198.25C639,-221.02 639,-257 639,-257 639,-257 406.91,-257 406.91,-257"/>
<polygon fill="black" stroke="black" points="406.91,-253.5 396.91,-257 406.91,-260.5 406.91,-253.5"/>
</g>
<!-- CountryDetailComponent  -->
<g id="node11" class="node">
<title>CountryDetailComponent </title>
<polygon fill="#fb8072" stroke="black" points="1373.43,-266 1208.57,-266 1208.57,-230 1373.43,-230 1373.43,-266"/>
<text text-anchor="middle" x="1291" y="-243.8" font-family="Times,serif" font-size="14.00">CountryDetailComponent </text>
</g>
<!-- CountryDetailModule&#45;&gt;CountryDetailComponent  -->
<g id="edge10" class="edge">
<title>CountryDetailModule&#45;&gt;CountryDetailComponent </title>
<path fill="none" stroke="black" stroke-dasharray="5,2" d="M708.78,-180C876.97,-180 1291,-180 1291,-180 1291,-180 1291,-219.78 1291,-219.78"/>
<polygon fill="black" stroke="black" points="1287.5,-219.78 1291,-229.78 1294.5,-219.78 1287.5,-219.78"/>
</g>
<!-- SharedModule  -->
<g id="node12" class="node">
<title>SharedModule </title>
<polygon fill="#fb8072" stroke="black" points="1190.92,-266 1089.08,-266 1089.08,-230 1190.92,-230 1190.92,-266"/>
<text text-anchor="middle" x="1140" y="-243.8" font-family="Times,serif" font-size="14.00">SharedModule </text>
</g>
<!-- CountryDetailModule&#45;&gt;SharedModule  -->
<g id="edge11" class="edge">
<title>CountryDetailModule&#45;&gt;SharedModule </title>
<path fill="none" stroke="black" stroke-dasharray="5,2" d="M708.66,-189C846.32,-189 1140,-189 1140,-189 1140,-189 1140,-219.98 1140,-219.98"/>
<polygon fill="black" stroke="black" points="1136.5,-219.98 1140,-229.98 1143.5,-219.98 1136.5,-219.98"/>
</g>
<!-- HeaderModule -->
<g id="node6" class="node">
<title>HeaderModule</title>
<polygon fill="#8dd3c7" stroke="black" points="272.96,-198 269.96,-202 248.96,-202 245.96,-198 173.04,-198 173.04,-162 272.96,-162 272.96,-198"/>
<text text-anchor="middle" x="223" y="-175.8" font-family="Times,serif" font-size="14.00">HeaderModule</text>
</g>
<!-- HeaderModule&#45;&gt;AppModule -->
<g id="edge5" class="edge">
<title>HeaderModule&#45;&gt;AppModule</title>
<path fill="none" stroke="black" d="M223,-198.27C223,-216.56 223,-242 223,-242 223,-242 303.23,-242 303.23,-242"/>
<polygon fill="black" stroke="black" points="303.23,-245.5 313.23,-242 303.23,-238.5 303.23,-245.5"/>
</g>
<!-- HeaderComponent  -->
<g id="node15" class="node">
<title>HeaderComponent </title>
<polygon fill="#fb8072" stroke="black" points="149.74,-122 24.26,-122 24.26,-86 149.74,-86 149.74,-122"/>
<text text-anchor="middle" x="87" y="-99.8" font-family="Times,serif" font-size="14.00">HeaderComponent </text>
</g>
<!-- HeaderModule&#45;&gt;HeaderComponent  -->
<g id="edge14" class="edge">
<title>HeaderModule&#45;&gt;HeaderComponent </title>
<path fill="none" stroke="black" stroke-dasharray="5,2" d="M172.92,-180C166.06,-180 161.32,-180 161.32,-180 161.32,-180 161.32,-104 161.32,-104 161.32,-104 159.71,-104 159.71,-104"/>
<polygon fill="black" stroke="black" points="159.71,-100.5 149.71,-104 159.71,-107.5 159.71,-100.5"/>
</g>
<!-- CountriesComponent -->
<g id="node8" class="node">
<title>CountriesComponent</title>
<polygon fill="#ffffb3" stroke="black" points="1048.77,-266 913.23,-266 913.23,-230 1048.77,-230 1048.77,-266"/>
<text text-anchor="middle" x="981" y="-243.8" font-family="Times,serif" font-size="14.00">CountriesComponent</text>
</g>
<!-- CountriesComponent&#45;&gt;CountriesModule -->
<g id="edge7" class="edge">
<title>CountriesComponent&#45;&gt;CountriesModule</title>
<path fill="none" stroke="black" d="M981,-229.81C981,-221.72 981,-214 981,-214 981,-214 465.5,-214 465.5,-214 465.5,-214 465.5,-208.19 465.5,-208.19"/>
<polygon fill="black" stroke="black" points="469,-208.19 465.5,-198.19 462,-208.19 469,-208.19"/>
</g>
<!-- CountryDetailComponent -->
<g id="node10" class="node">
<title>CountryDetailComponent</title>
<polygon fill="#ffffb3" stroke="black" points="1558.93,-266 1397.07,-266 1397.07,-230 1558.93,-230 1558.93,-266"/>
<text text-anchor="middle" x="1478" y="-243.8" font-family="Times,serif" font-size="14.00">CountryDetailComponent</text>
</g>
<!-- CountryDetailComponent&#45;&gt;CountryDetailModule -->
<g id="edge9" class="edge">
<title>CountryDetailComponent&#45;&gt;CountryDetailModule</title>
<path fill="none" stroke="black" d="M1478,-229.75C1478,-206.98 1478,-171 1478,-171 1478,-171 718.73,-171 718.73,-171"/>
<polygon fill="black" stroke="black" points="718.73,-167.5 708.73,-171 718.73,-174.5 718.73,-167.5"/>
</g>
<!-- HeaderComponent -->
<g id="node13" class="node">
<title>HeaderComponent</title>
<polygon fill="#ffffb3" stroke="black" points="417.74,-122 296.26,-122 296.26,-86 417.74,-86 417.74,-122"/>
<text text-anchor="middle" x="357" y="-99.8" font-family="Times,serif" font-size="14.00">HeaderComponent</text>
</g>
<!-- HeaderComponent&#45;&gt;HeaderModule -->
<g id="edge12" class="edge">
<title>HeaderComponent&#45;&gt;HeaderModule</title>
<path fill="none" stroke="black" d="M295.94,-104C287.58,-104 281.8,-104 281.8,-104 281.8,-104 281.8,-180 281.8,-180 281.8,-180 280.93,-180 280.93,-180"/>
<polygon fill="black" stroke="black" points="283.12,-176.5 273.12,-180 283.12,-183.5 283.12,-176.5"/>
</g>
<!-- SharedModule -->
<g id="node14" class="node">
<title>SharedModule</title>
<polygon fill="#8dd3c7" stroke="black" points="272.42,-122 269.42,-126 248.42,-126 245.42,-122 173.58,-122 173.58,-86 272.42,-86 272.42,-122"/>
<text text-anchor="middle" x="223" y="-99.8" font-family="Times,serif" font-size="14.00">SharedModule</text>
</g>
<!-- SharedModule&#45;&gt;HeaderModule -->
<g id="edge13" class="edge">
<title>SharedModule&#45;&gt;HeaderModule</title>
<path fill="none" stroke="black" d="M223,-122.01C223,-122.01 223,-151.85 223,-151.85"/>
<polygon fill="black" stroke="black" points="219.5,-151.85 223,-161.85 226.5,-151.85 219.5,-151.85"/>
</g>
</g>
</svg>
